<mxfile host="app.diagrams.net" modified="2022-09-23T03:43:29.914Z" agent="5.0 (Macintosh; Intel Mac OS X 10_15_7) AppleWebKit/537.36 (KHTML, like Gecko) Chrome/105.0.0.0 Safari/537.36" etag="uqYwFamAh_dRFXfIx0xw" version="20.3.6" type="github">
  <diagram id="C5RBs43oDa-KdzZeNtuy" name="Page-1">
    <mxGraphModel dx="2765" dy="1013" grid="1" gridSize="10" guides="1" tooltips="1" connect="1" arrows="1" fold="1" page="1" pageScale="1" pageWidth="827" pageHeight="1169" math="0" shadow="0">
      <root>
        <mxCell id="WIyWlLk6GJQsqaUBKTNV-0" />
        <mxCell id="WIyWlLk6GJQsqaUBKTNV-1" parent="WIyWlLk6GJQsqaUBKTNV-0" />
        <mxCell id="nvogpSVKcJ1wi3bkfDBT-2" value="" style="edgeStyle=orthogonalEdgeStyle;rounded=0;orthogonalLoop=1;jettySize=auto;html=1;" edge="1" parent="WIyWlLk6GJQsqaUBKTNV-1" source="nvogpSVKcJ1wi3bkfDBT-0" target="nvogpSVKcJ1wi3bkfDBT-1">
          <mxGeometry relative="1" as="geometry" />
        </mxCell>
        <mxCell id="nvogpSVKcJ1wi3bkfDBT-0" value="lacp_init" style="html=1;" vertex="1" parent="WIyWlLk6GJQsqaUBKTNV-1">
          <mxGeometry x="110" y="150" width="90" height="30" as="geometry" />
        </mxCell>
        <mxCell id="nvogpSVKcJ1wi3bkfDBT-4" value="" style="edgeStyle=orthogonalEdgeStyle;rounded=0;orthogonalLoop=1;jettySize=auto;html=1;" edge="1" parent="WIyWlLk6GJQsqaUBKTNV-1" source="nvogpSVKcJ1wi3bkfDBT-1" target="nvogpSVKcJ1wi3bkfDBT-3">
          <mxGeometry relative="1" as="geometry" />
        </mxCell>
        <mxCell id="nvogpSVKcJ1wi3bkfDBT-27" value="" style="edgeStyle=orthogonalEdgeStyle;rounded=0;orthogonalLoop=1;jettySize=auto;html=1;" edge="1" parent="WIyWlLk6GJQsqaUBKTNV-1" source="nvogpSVKcJ1wi3bkfDBT-1" target="nvogpSVKcJ1wi3bkfDBT-26">
          <mxGeometry relative="1" as="geometry" />
        </mxCell>
        <mxCell id="nvogpSVKcJ1wi3bkfDBT-1" value="teamd_hash_func_set" style="html=1;" vertex="1" parent="WIyWlLk6GJQsqaUBKTNV-1">
          <mxGeometry x="110" y="240" width="90" height="30" as="geometry" />
        </mxCell>
        <mxCell id="nvogpSVKcJ1wi3bkfDBT-6" value="" style="edgeStyle=orthogonalEdgeStyle;rounded=0;orthogonalLoop=1;jettySize=auto;html=1;" edge="1" parent="WIyWlLk6GJQsqaUBKTNV-1" source="nvogpSVKcJ1wi3bkfDBT-3" target="nvogpSVKcJ1wi3bkfDBT-5">
          <mxGeometry relative="1" as="geometry" />
        </mxCell>
        <mxCell id="nvogpSVKcJ1wi3bkfDBT-29" value="" style="edgeStyle=orthogonalEdgeStyle;rounded=0;orthogonalLoop=1;jettySize=auto;html=1;" edge="1" parent="WIyWlLk6GJQsqaUBKTNV-1" source="nvogpSVKcJ1wi3bkfDBT-3" target="nvogpSVKcJ1wi3bkfDBT-28">
          <mxGeometry relative="1" as="geometry" />
        </mxCell>
        <mxCell id="nvogpSVKcJ1wi3bkfDBT-3" value="lacp_load_config" style="html=1;" vertex="1" parent="WIyWlLk6GJQsqaUBKTNV-1">
          <mxGeometry x="110" y="340" width="90" height="30" as="geometry" />
        </mxCell>
        <mxCell id="nvogpSVKcJ1wi3bkfDBT-8" value="" style="edgeStyle=orthogonalEdgeStyle;rounded=0;orthogonalLoop=1;jettySize=auto;html=1;" edge="1" parent="WIyWlLk6GJQsqaUBKTNV-1" source="nvogpSVKcJ1wi3bkfDBT-5" target="nvogpSVKcJ1wi3bkfDBT-7">
          <mxGeometry relative="1" as="geometry" />
        </mxCell>
        <mxCell id="nvogpSVKcJ1wi3bkfDBT-31" value="" style="edgeStyle=orthogonalEdgeStyle;rounded=0;orthogonalLoop=1;jettySize=auto;html=1;" edge="1" parent="WIyWlLk6GJQsqaUBKTNV-1" source="nvogpSVKcJ1wi3bkfDBT-5" target="nvogpSVKcJ1wi3bkfDBT-30">
          <mxGeometry relative="1" as="geometry" />
        </mxCell>
        <mxCell id="nvogpSVKcJ1wi3bkfDBT-5" value="lacp_carrier_init" style="html=1;" vertex="1" parent="WIyWlLk6GJQsqaUBKTNV-1">
          <mxGeometry x="110" y="450" width="90" height="30" as="geometry" />
        </mxCell>
        <mxCell id="nvogpSVKcJ1wi3bkfDBT-12" value="" style="edgeStyle=orthogonalEdgeStyle;rounded=0;orthogonalLoop=1;jettySize=auto;html=1;" edge="1" parent="WIyWlLk6GJQsqaUBKTNV-1" source="nvogpSVKcJ1wi3bkfDBT-7" target="nvogpSVKcJ1wi3bkfDBT-11">
          <mxGeometry relative="1" as="geometry" />
        </mxCell>
        <mxCell id="nvogpSVKcJ1wi3bkfDBT-33" value="" style="edgeStyle=orthogonalEdgeStyle;rounded=0;orthogonalLoop=1;jettySize=auto;html=1;" edge="1" parent="WIyWlLk6GJQsqaUBKTNV-1" source="nvogpSVKcJ1wi3bkfDBT-7" target="nvogpSVKcJ1wi3bkfDBT-32">
          <mxGeometry relative="1" as="geometry" />
        </mxCell>
        <mxCell id="nvogpSVKcJ1wi3bkfDBT-7" value="teamd_event_watch_register" style="html=1;" vertex="1" parent="WIyWlLk6GJQsqaUBKTNV-1">
          <mxGeometry x="110" y="560" width="90" height="30" as="geometry" />
        </mxCell>
        <mxCell id="nvogpSVKcJ1wi3bkfDBT-14" value="" style="edgeStyle=orthogonalEdgeStyle;rounded=0;orthogonalLoop=1;jettySize=auto;html=1;" edge="1" parent="WIyWlLk6GJQsqaUBKTNV-1" source="nvogpSVKcJ1wi3bkfDBT-11">
          <mxGeometry relative="1" as="geometry">
            <mxPoint x="255" y="662.5" as="targetPoint" />
          </mxGeometry>
        </mxCell>
        <mxCell id="nvogpSVKcJ1wi3bkfDBT-16" value="NO" style="edgeLabel;html=1;align=center;verticalAlign=middle;resizable=0;points=[];" vertex="1" connectable="0" parent="nvogpSVKcJ1wi3bkfDBT-14">
          <mxGeometry x="-0.2" y="-1" relative="1" as="geometry">
            <mxPoint as="offset" />
          </mxGeometry>
        </mxCell>
        <mxCell id="nvogpSVKcJ1wi3bkfDBT-20" value="" style="edgeStyle=orthogonalEdgeStyle;rounded=0;orthogonalLoop=1;jettySize=auto;html=1;" edge="1" parent="WIyWlLk6GJQsqaUBKTNV-1" source="nvogpSVKcJ1wi3bkfDBT-11" target="nvogpSVKcJ1wi3bkfDBT-19">
          <mxGeometry relative="1" as="geometry" />
        </mxCell>
        <mxCell id="nvogpSVKcJ1wi3bkfDBT-21" value="YES" style="edgeLabel;html=1;align=center;verticalAlign=middle;resizable=0;points=[];" vertex="1" connectable="0" parent="nvogpSVKcJ1wi3bkfDBT-20">
          <mxGeometry x="-0.1" relative="1" as="geometry">
            <mxPoint as="offset" />
          </mxGeometry>
        </mxCell>
        <mxCell id="nvogpSVKcJ1wi3bkfDBT-11" value="if vnic" style="rhombus;whiteSpace=wrap;html=1;" vertex="1" parent="WIyWlLk6GJQsqaUBKTNV-1">
          <mxGeometry x="115" y="645" width="80" height="35" as="geometry" />
        </mxCell>
        <mxCell id="nvogpSVKcJ1wi3bkfDBT-15" value="teamd_balancer_init" style="html=1;" vertex="1" parent="WIyWlLk6GJQsqaUBKTNV-1">
          <mxGeometry x="260" y="647.5" width="90" height="32.5" as="geometry" />
        </mxCell>
        <mxCell id="nvogpSVKcJ1wi3bkfDBT-25" value="" style="edgeStyle=orthogonalEdgeStyle;rounded=0;orthogonalLoop=1;jettySize=auto;html=1;" edge="1" parent="WIyWlLk6GJQsqaUBKTNV-1" source="nvogpSVKcJ1wi3bkfDBT-19" target="nvogpSVKcJ1wi3bkfDBT-24">
          <mxGeometry relative="1" as="geometry" />
        </mxCell>
        <mxCell id="nvogpSVKcJ1wi3bkfDBT-148" value="" style="edgeStyle=orthogonalEdgeStyle;rounded=0;orthogonalLoop=1;jettySize=auto;html=1;" edge="1" parent="WIyWlLk6GJQsqaUBKTNV-1" source="nvogpSVKcJ1wi3bkfDBT-19" target="nvogpSVKcJ1wi3bkfDBT-147">
          <mxGeometry relative="1" as="geometry" />
        </mxCell>
        <mxCell id="nvogpSVKcJ1wi3bkfDBT-19" value="teamd_state_val_register" style="html=1;" vertex="1" parent="WIyWlLk6GJQsqaUBKTNV-1">
          <mxGeometry x="100" y="720" width="110" height="30" as="geometry" />
        </mxCell>
        <mxCell id="nvogpSVKcJ1wi3bkfDBT-23" value="" style="endArrow=classic;html=1;rounded=0;exitX=0.5;exitY=1;exitDx=0;exitDy=0;entryX=1;entryY=0.5;entryDx=0;entryDy=0;" edge="1" parent="WIyWlLk6GJQsqaUBKTNV-1" source="nvogpSVKcJ1wi3bkfDBT-15" target="nvogpSVKcJ1wi3bkfDBT-19">
          <mxGeometry width="50" height="50" relative="1" as="geometry">
            <mxPoint x="390" y="570" as="sourcePoint" />
            <mxPoint x="440" y="520" as="targetPoint" />
            <Array as="points">
              <mxPoint x="305" y="735" />
            </Array>
          </mxGeometry>
        </mxCell>
        <mxCell id="nvogpSVKcJ1wi3bkfDBT-24" value="balancer_fini" style="html=1;" vertex="1" parent="WIyWlLk6GJQsqaUBKTNV-1">
          <mxGeometry x="100" y="830" width="110" height="30" as="geometry" />
        </mxCell>
        <mxCell id="nvogpSVKcJ1wi3bkfDBT-26" value="通过runner.tx做&lt;br&gt;hash选择" style="html=1;" vertex="1" parent="WIyWlLk6GJQsqaUBKTNV-1">
          <mxGeometry x="280" y="230" width="130" height="50" as="geometry" />
        </mxCell>
        <mxCell id="nvogpSVKcJ1wi3bkfDBT-28" value="解析bond0.conf文件&lt;br&gt;并赋值给ctx" style="html=1;" vertex="1" parent="WIyWlLk6GJQsqaUBKTNV-1">
          <mxGeometry x="280" y="330" width="130" height="50" as="geometry" />
        </mxCell>
        <mxCell id="nvogpSVKcJ1wi3bkfDBT-30" value="热重启标记位 置位&lt;br&gt;warm_start_carrier = true&lt;br&gt;carrier_up = true" style="html=1;" vertex="1" parent="WIyWlLk6GJQsqaUBKTNV-1">
          <mxGeometry x="280" y="440" width="130" height="50" as="geometry" />
        </mxCell>
        <mxCell id="nvogpSVKcJ1wi3bkfDBT-32" value="lacp相关的事件函数注册&lt;br&gt;hwaddr_changed&lt;br&gt;port_hwaddr_changed&lt;br&gt;port_added&lt;br&gt;port_removed&lt;br&gt;port_changed&lt;br&gt;admin_state_changed&lt;br&gt;port_flush_data&lt;br&gt;refresh&lt;br&gt;option_changed&lt;br&gt;option_changed_match_name" style="html=1;" vertex="1" parent="WIyWlLk6GJQsqaUBKTNV-1">
          <mxGeometry x="490" y="483.75" width="310" height="182.5" as="geometry" />
        </mxCell>
        <mxCell id="nvogpSVKcJ1wi3bkfDBT-147" value="注册lacp事件&lt;br&gt;lacp_state_vals [ active&amp;nbsp; | sys_prio | ast_rate | select_policy&lt;br&gt;delay | tx_internal ]&lt;br&gt;&lt;br&gt;lacp_port_state_vals [selected | aggregator.selected | state&lt;br&gt;key | prio | actor_lacpdu_info | system_name | system_desr&lt;br&gt;port_name | port_descr ]" style="html=1;" vertex="1" parent="WIyWlLk6GJQsqaUBKTNV-1">
          <mxGeometry x="-330" y="550" width="350" height="130" as="geometry" />
        </mxCell>
      </root>
    </mxGraphModel>
  </diagram>
</mxfile>
